
<svg width="1200" height="1200" viewBox="0 0 1200 1200" xmlns="http://www.w3.org/2000/svg">
  <!-- Wavy background patterns -->
  <path fill="#3182CE" fill-opacity="0.05" d="M600,92.5C216.5,92.5,0,309,0,692.5S216.5,1200,600,1200s600-216.5,600-600S983.5,92.5,600,92.5z">
    <animate attributeName="d" dur="30s" repeatCount="indefinite" values="
      M600,92.5C216.5,92.5,0,309,0,692.5S216.5,1200,600,1200s600-216.5,600-600S983.5,92.5,600,92.5z;
      M600,92.5C316.5,92.5,100,309,100,692.5S316.5,1100,600,1100s500-116.5,500-500S883.5,92.5,600,92.5z;
      M600,192.5C316.5,192.5,100,309,100,592.5S316.5,1000,600,1000s500-116.5,500-500S883.5,192.5,600,192.5z;
      M600,92.5C216.5,92.5,0,309,0,692.5S216.5,1200,600,1200s600-216.5,600-600S983.5,92.5,600,92.5z
    "/>
  </path>
  
  <!-- Curly patterns -->
  <path fill="#10B981" fill-opacity="0.05" d="M600,0C268.6,0,0,268.6,0,600s268.6,600,600,600s600-268.6,600-600S931.4,0,600,0z M600,1000c-220.9,0-400-179.1-400-400s179.1-400,400-400s400,179.1,400,400S820.9,1000,600,1000z">
    <animate attributeName="d" dur="20s" repeatCount="indefinite" values="
      M600,0C268.6,0,0,268.6,0,600s268.6,600,600,600s600-268.6,600-600S931.4,0,600,0z M600,1000c-220.9,0-400-179.1-400-400s179.1-400,400-400s400,179.1,400,400S820.9,1000,600,1000z;
      M600,100C368.6,100,100,368.6,100,600s268.6,500,500,500s500-268.6,500-500S831.4,100,600,100z M600,900c-180.9,0-300-139.1-300-300s119.1-300,300-300s300,139.1,300,300S780.9,900,600,900z;
      M700,50C398.6,50,50,368.6,50,600s348.6,550,650,550s500-318.6,500-550S1001.4,50,700,50z M700,950c-220.9,0-350-179.1-350-350s129.1-350,350-350s350,179.1,350,350S920.9,950,700,950z;
      M600,0C268.6,0,0,268.6,0,600s268.6,600,600,600s600-268.6,600-600S931.4,0,600,0z M600,1000c-220.9,0-400-179.1-400-400s179.1-400,400-400s400,179.1,400,400S820.9,1000,600,1000z
    "/>
  </path>

  <!-- Wavy circles -->
  <path fill="#FFC333" fill-opacity="0.05" d="M600,200c-220.9,0-400,179.1-400,400s179.1,400,400,400s400-179.1,400-400S820.9,200,600,200z M600,800c-110.5,0-200-89.5-200-200s89.5-200,200-200s200,89.5,200,200S710.5,800,600,800z">
    <animate attributeName="d" dur="15s" repeatCount="indefinite" values="
      M600,200c-220.9,0-400,179.1-400,400s179.1,400,400,400s400-179.1,400-400S820.9,200,600,200z M600,800c-110.5,0-200-89.5-200-200s89.5-200,200-200s200,89.5,200,200S710.5,800,600,800z;
      M600,300c-170.9,50-300,129.1-300,300s129.1,300,300,300s300-129.1,300-300S770.9,350,600,300z M600,750c-90.5,25-150-59.5-150-150s59.5-175,150-150s150,59.5,150,150S690.5,775,600,750z;
      M600,250c-190.9,0-350,159.1-350,350s159.1,350,350,350s350-159.1,350-350S790.9,250,600,250z M600,750c-80.5,0-150-69.5-150-150s69.5-150,150-150s150,69.5,150,150S680.5,750,600,750z;
      M600,200c-220.9,0-400,179.1-400,400s179.1,400,400,400s400-179.1,400-400S820.9,200,600,200z M600,800c-110.5,0-200-89.5-200-200s89.5-200,200-200s200,89.5,200,200S710.5,800,600,800z
    "/>
  </path>

  <!-- Curvy decorative lines -->
  <path fill="none" stroke="#3182CE" stroke-width="3" stroke-opacity="0.05" d="M200,600 C300,500 500,700 600,600 C700,500 900,700 1000,600">
    <animate attributeName="d" dur="10s" repeatCount="indefinite" values="
      M200,600 C300,500 500,700 600,600 C700,500 900,700 1000,600;
      M200,500 C300,600 500,400 600,500 C700,600 900,400 1000,500;
      M200,600 C300,700 500,500 600,600 C700,700 900,500 1000,600;
      M200,600 C300,500 500,700 600,600 C700,500 900,700 1000,600
    "/>
  </path>
  
  <path fill="none" stroke="#10B981" stroke-width="3" stroke-opacity="0.05" d="M200,400 C400,300 600,500 800,400 C1000,300 1200,500 1400,400">
    <animate attributeName="d" dur="15s" repeatCount="indefinite" values="
      M200,400 C400,300 600,500 800,400 C1000,300 1200,500 1400,400;
      M200,500 C400,600 600,400 800,500 C1000,600 1200,400 1400,500;
      M200,300 C400,200 600,400 800,300 C1000,200 1200,400 1400,300;
      M200,400 C400,300 600,500 800,400 C1000,300 1200,500 1400,400
    "/>
  </path>

  <path fill="none" stroke="#FFC333" stroke-width="3" stroke-opacity="0.05" d="M0,800 C200,700 400,900 600,800 C800,700 1000,900 1200,800">
    <animate attributeName="d" dur="12s" repeatCount="indefinite" values="
      M0,800 C200,700 400,900 600,800 C800,700 1000,900 1200,800;
      M0,900 C200,1000 400,800 600,900 C800,1000 1000,800 1200,900;
      M0,700 C200,600 400,800 600,700 C800,600 1000,800 1200,700;
      M0,800 C200,700 400,900 600,800 C800,700 1000,900 1200,800
    "/>
  </path>
</svg>
